<svg xmlns="http://www.w3.org/2000/svg" viewBox="0 0 600 400" role="img" aria-labelledby="title desc">
  <title id="title">Children playing together at daycare</title>
  <desc id="desc">Two smiling children play with toys on a colorful daycare rug.</desc>
  <rect width="600" height="400" fill="#fff2f8"/>
  <rect y="270" width="600" height="130" fill="#9bd7f5"/>
  <circle cx="110" cy="82" r="36" fill="#ffd86b"/>
  <rect x="55" y="52" width="490" height="175" rx="26" fill="#ffffff" stroke="#ffd1e5" stroke-width="6"/>
  <circle cx="230" cy="150" r="34" fill="#7a4a2b"/>
  <circle cx="370" cy="150" r="34" fill="#4c321f"/>
  <circle cx="230" cy="158" r="28" fill="#f1b98a"/>
  <circle cx="370" cy="158" r="28" fill="#c98255"/>
  <path d="M212 142c12 8 24 8 36 0" fill="none" stroke="#7a4a2b" stroke-width="5" stroke-linecap="round"/>
  <path d="M352 142c12 8 24 8 36 0" fill="none" stroke="#4c321f" stroke-width="5" stroke-linecap="round"/>
  <circle cx="219" cy="158" r="3" fill="#30221a"/>
  <circle cx="241" cy="158" r="3" fill="#30221a"/>
  <circle cx="359" cy="158" r="3" fill="#30221a"/>
  <circle cx="381" cy="158" r="3" fill="#30221a"/>
  <path d="M220 173q10 10 20 0" fill="none" stroke="#7b2a3a" stroke-width="4" stroke-linecap="round"/>
  <path d="M360 173q10 10 20 0" fill="none" stroke="#7b2a3a" stroke-width="4" stroke-linecap="round"/>
  <path d="M192 252c8-48 68-48 76 0" fill="#ff8ec3"/>
  <path d="M332 252c8-48 68-48 76 0" fill="#7bd389"/>
  <rect x="160" y="292" width="86" height="58" rx="10" fill="#ffca3a"/>
  <rect x="262" y="286" width="72" height="64" rx="10" fill="#8ac926"/>
  <rect x="350" y="300" width="90" height="50" rx="10" fill="#ff595e"/>
  <circle cx="500" cy="318" r="24" fill="#6a4c93"/>
  <circle cx="526" cy="318" r="24" fill="#1982c4"/>
  <path d="M106 319c52-30 100-30 152 0s100 30 152 0 100-30 152 0" fill="none" stroke="#ffffff" stroke-width="12" stroke-linecap="round" opacity=".75"/>
</svg>
